<svg class="icon" viewBox="0 0 1024 1024" xmlns="http://www.w3.org/2000/svg" width="32" height="32"><defs><style/></defs><path d="M942.848 586.081c1.628-14.679-50.57-107.663-50.57-107.663-24.469-47.309 11.417-75.044 13.05-99.512 11.418-112.558-26.101-182.708-78.3-236.54-86.461-89.722-195.752-106.034-267.53-106.034-184.34 1.633-257.74 60.36-314.839 122.347-117.453 132.132-92.984 246.323-92.984 241.429 1.628 68.515 96.246 192.496 96.246 192.496 75.038 107.664 26.101 243.062 26.101 243.062 151.711 34.258 306.683 150.082 306.683 150.082 6.518-32.624 58.727-117.447 58.727-117.447 30.996-37.52 81.566-24.469 109.296-21.212 78.306 9.784 97.88-13.051 97.88-13.051 17.945-9.79 9.789-53.832 9.789-53.832-6.523-22.84 3.261-34.258 9.784-42.414 16.318-24.468 6.523-35.891 6.523-35.891-4.895-6.523-1.628-9.785-1.628-9.785 19.574-6.528 21.207-16.322 21.207-16.322V641.54c-3.262-24.463 8.161-26.102 8.161-26.102 44.037-1.628 42.404-29.358 42.404-29.358zm-335.56-403.24l19.308-33.409a9.646 9.646 0 0 1 16.696 9.662l-19.307 33.403a9.656 9.656 0 0 1-13.18 3.522 9.661 9.661 0 0 1-3.517-13.179zM500.71 127.528a9.636 9.636 0 0 1 11.807 6.825l9.969 37.279a9.646 9.646 0 1 1-18.632 4.976l-9.974-37.268a9.656 9.656 0 0 1 6.83-11.812zm-111.329 85.335a9.646 9.646 0 0 1 13.179-3.517l33.403 19.307a9.641 9.641 0 1 1-9.656 16.702l-33.408-19.308a9.651 9.651 0 0 1-3.518-13.184zm-13.89 144.922a9.651 9.651 0 0 1 2.334-17.67l37.274-9.968a9.641 9.641 0 1 1 4.987 18.632l-37.274 9.968a9.523 9.523 0 0 1-7.321-.962zm115.763 140.446c-3.103 2.837-7.87 2.95-11.52.845l-.133-.082a14.694 14.694 0 0 0-15.458.466l-.19.113a19.814 19.814 0 0 1-20.827.624l-12.196-7.06a19.814 19.814 0 0 1-9.871-18.355l.015-.226a14.715 14.715 0 0 0-7.322-13.629l-.123-.072c-3.65-2.104-5.934-6.287-5.022-10.398a9.677 9.677 0 0 1 14.32-6.503l66.806 38.615a9.677 9.677 0 0 1 1.52 15.662zm14.08-23.357a9.646 9.646 0 0 1-13.18 3.522l-66.81-38.62a9.656 9.656 0 0 1-3.528-13.173A9.651 9.651 0 0 1 435 423.076l66.811 38.62c4.608 2.662 6.19 8.57 3.523 13.179zm90.066 6.769a9.585 9.585 0 0 1-7.312-.963 9.574 9.574 0 0 1-4.49-5.862l-9.974-37.274a9.646 9.646 0 0 1 18.637-4.987l9.964 37.279a9.63 9.63 0 0 1-6.825 11.807zm37.934-122.194c-31.985 55.337-86.64 37.708-119.004 81.7a9.615 9.615 0 0 1 3.072 12.85 9.651 9.651 0 0 1-13.18 3.523l-66.805-38.62a9.626 9.626 0 1 1 9.144-16.927c10.573-24.074 6.195-45.496 2.376-67.415a102.323 102.323 0 0 1-9.226-42.409c0-56.801 46.044-102.845 102.845-102.845 56.474 0 102.267 45.527 102.794 101.873a100.803 100.803 0 0 1-12.016 68.27zm73.4 36.858a9.651 9.651 0 0 1-13.169 3.533l-33.413-19.312a9.646 9.646 0 0 1 9.652-16.702l33.397 19.308a9.626 9.626 0 0 1 3.533 13.173zm11.546-127.257l-37.269 9.969a9.636 9.636 0 1 1-4.976-18.632l37.268-9.969a9.646 9.646 0 0 1 4.977 18.632z"/><path d="M457.958 258.079c27.991-48.425 89.943-64.999 138.374-37.003 26.946 15.576 43.99 41.677 49.018 70.093-.532-56.345-46.32-101.872-102.794-101.872-56.801 0-102.845 46.049-102.845 102.845 0 15.14 3.353 29.466 9.226 42.409-4.111-23.603-7.567-47.785 9.021-76.472z"/></svg>