<?xml version="1.0" standalone="no"?><!DOCTYPE svg PUBLIC "-//W3C//DTD SVG 1.1//EN" "http://www.w3.org/Graphics/SVG/1.1/DTD/svg11.dtd"><svg t="1572860002113" class="icon" viewBox="0 0 1025 1024" version="1.1" xmlns="http://www.w3.org/2000/svg" p-id="3114" xmlns:xlink="http://www.w3.org/1999/xlink" width="32.03125" height="32"><defs><style type="text/css"></style></defs><path d="M344.3264 460.8c-35.072 0-63.488 37.12-63.488 83.2s28.416 83.2 63.488 83.2 63.488-37.12 63.488-83.2S379.3984 460.8 344.3264 460.8z m15.104 84.224A32 32 0 1 1 392.4544 512 32 32 0 0 1 359.4304 545.024zM679.6864 460.8C644.6144 460.8 615.4304 497.152 615.4304 542.976s28.416 83.2 63.488 83.2S743.4304 588.8 743.4304 542.976 714.7584 460.8 679.6864 460.8z m15.36 85.248A32 32 0 1 1 727.0464 512a32 32 0 0 1-32 33.024zM572.9344 737.28c-5.376 4.864-14.592 14.08-21.76 14.592-13.312 0-22.784-11.776-30.976-18.176v-25.6c15.616-4.352 40.704-18.688 38.4-39.68-1.536-13.312-21.76-18.432-46.592-18.432-25.6 0-45.312 5.376-46.592 18.432-2.304 20.48 22.016 34.56 37.632 39.424v25.6c-8.192 6.4-17.664 19.2-30.976 18.176-6.912 0-16.128-9.728-21.76-14.592s-3.84-2.304-2.56 0a62.976 62.976 0 0 0 14.848 20.736 25.6 25.6 0 0 0 20.224 6.4A31.744 31.744 0 0 0 513.0304 795.392c18.176 0 25.6-16.896 27.904-29.952a25.6 25.6 0 0 0 18.944-6.656 62.976 62.976 0 0 0 14.848-20.736c2.048-3.328 0.256-2.56-1.792-0.768zM513.0304 786.432c-16.64 0-20.992-15.872-22.016-23.552a68.352 68.352 0 0 0 19.968-17.92 65.536 65.536 0 0 0 21.248 18.432c-0.512 8.192-4.864 23.04-19.2 23.04z" p-id="3115" fill="#2c2c2c"></path><path d="M1025.0304 660.992c-1.792-4.864-6.656-17.664-7.936-20.992-6.912-15.616-15.872-34.816-23.808-51.2-15.872-30.464-35.584-62.976-54.528-91.648a850.944 850.944 0 0 0-51.2-71.424 566.528 566.528 0 0 0 21.248-89.856 379.904 379.904 0 0 0-3.072-130.816 312.32 312.32 0 0 0-19.456-62.208c-3.584-8.192-7.68-15.872-11.776-23.808a2.304 2.304 0 0 0-3.84 0A560.64 560.64 0 0 1 801.7984 204.8a398.336 398.336 0 0 1-90.88 66.816A353.536 353.536 0 0 0 636.6784 230.4a342.528 342.528 0 0 0-125.952-23.296A384 384 0 0 0 385.0304 230.4a358.4 358.4 0 0 0-76.8 38.4A395.008 395.008 0 0 1 222.2144 204.8 560.896 560.896 0 0 1 154.6304 120.32a2.304 2.304 0 0 0-3.84 0c-4.096 7.936-8.192 15.616-11.776 23.808a312.32 312.32 0 0 0-19.456 62.208 380.16 380.16 0 0 0-3.072 130.816 531.456 531.456 0 0 0 18.176 83.968c-5.12 6.4-10.752 12.288-15.616 18.688a815.36 815.36 0 0 0-74.24 118.272Q28.6784 588.8 15.1104 622.08c-2.816 7.168-11.52 32.768-14.08 39.68A2.304 2.304 0 0 0 1.0304 665.6l25.6 12.288 33.28 15.872c14.848 7.168 29.952 14.08 44.8 21.76l-58.624 19.968a2.304 2.304 0 0 0 0 3.84l14.592 13.056a533.76 533.76 0 0 0 79.104 54.784 731.904 731.904 0 0 0 88.064 43.52 705.792 705.792 0 0 0 94.976 31.232 812.8 812.8 0 0 0 99.072 18.432 734.464 734.464 0 0 0 102.4 5.632 775.168 775.168 0 0 0 102.4-8.704 778.496 778.496 0 0 0 98.048-20.992 711.936 711.936 0 0 0 92.672-33.536 699.136 699.136 0 0 0 87.296-46.08c13.824-8.704 27.648-17.92 40.704-27.648s23.808-19.456 35.328-29.696a2.304 2.304 0 0 0 0-3.84l-59.904-20.48 104.448-51.2a2.304 2.304 0 0 0-0.256-2.816z m-153.6 53.248a2.304 2.304 0 0 0 0 4.096l67.584 25.6s-54.016 36.608-81.408 51.2a702.72 702.72 0 0 1-84.736 37.632 730.112 730.112 0 0 1-90.368 25.6 784.896 784.896 0 0 1-94.976 15.36 747.52 747.52 0 0 1-96.768 3.328 769.792 769.792 0 0 1-95.744-8.96 759.552 759.552 0 0 1-92.672-20.48 727.552 727.552 0 0 1-88.832-31.232 632.576 632.576 0 0 1-80.64-41.728c-15.872-9.728-31.232-20.224-46.336-30.976L93.1904 742.4l61.44-24.064a2.304 2.304 0 0 0 0-4.096l-10.496-4.608C110.5984 694.272 26.6304 654.592 26.6304 654.592S46.0864 601.6 52.2304 588.8c7.68-18.176 16.64-36.096 25.6-53.504s20.48-36.352 32-54.016S129.0304 449.792 141.3184 435.2a844.8 844.8 0 0 1 67.072-74.752l9.472-9.984a42.752 42.752 0 0 0 9.216-12.544c0-1.792-5.12-3.328-6.912-2.816a51.2 51.2 0 0 0-12.288 8.448l-5.12 4.864a317.952 317.952 0 0 1-34.816-80.896 395.264 395.264 0 0 1-10.24-98.56S192.7744 207.36 223.7504 234.24c25.6 22.272 51.2 43.776 60.16 51.2l-7.168 5.376c-10.752 9.472 3.072 5.888 11.264 0a442.112 442.112 0 0 1 102.4-43.776 491.008 491.008 0 0 1 120.32-15.36 416.512 416.512 0 0 1 119.552 16.896 476.672 476.672 0 0 1 100.096 46.848c16.896 7.68 17.152 3.328 2.816-7.936h1.536s34.304-26.112 65.536-53.248S866.3104 168.96 866.3104 168.96a395.264 395.264 0 0 1-10.496 98.816 332.8 332.8 0 0 1-39.936 88.32c-16.384-12.544-28.16-13.824-7.168 5.12a465.152 465.152 0 0 1 51.2 52.992 917.76 917.76 0 0 1 82.176 118.272c12.032 20.992 23.04 43.52 33.536 65.28s22.528 52.992 22.528 52.992-86.784 44.8-126.72 63.488z" p-id="3116" fill="#2c2c2c"></path></svg>