<?xml version="1.0" standalone="no"?><!DOCTYPE svg PUBLIC "-//W3C//DTD SVG 1.1//EN" "http://www.w3.org/Graphics/SVG/1.1/DTD/svg11.dtd"><svg t="1572860026915" class="icon" viewBox="0 0 2109 1024" version="1.1" xmlns="http://www.w3.org/2000/svg" p-id="4059" xmlns:xlink="http://www.w3.org/1999/xlink" width="65.90625" height="32"><defs><style type="text/css"></style></defs><path d="M2102.393307 480.503456l-30.194253-30.194252-34.132633-3.938381-19.954462-17.591434L1915.188942 288.835593a41.221719 41.221719 0 0 1-3.938381-38.85869 54.349654 54.349654 0 0 0 0-35.970544 52.511743 52.511743 0 0 0-38.071014-35.445427 39.121249 39.121249 0 0 1-26.255872-24.155402l-17.853992-51.19895-37.283338-57.762917h-43.847306v24.155402A1268.683719 1268.683719 0 0 0 1414.22691 5.534738L369.505776 0.021005A365.744292 365.744292 0 0 0 0.085662 353.687596a355.241944 355.241944 0 0 0 26.255871 142.044266 192.980657 192.980657 0 0 1 14.965847 99.772312L26.341533 722.057476l16.016082 212.935119V1024h179.852721v-26.255872l-52.511743-64.852003v-81.393202L210.132635 753.564522l28.881459 72.991323 88.744846 126.028184 4.463498 71.415971h180.377839v-26.255872L446.43548 945.232385l-26.255871-109.749544v-86.381817a1234.025969 1234.025969 0 0 0 366.006851 55.399889h33.870074a1269.208837 1269.208837 0 0 0 169.350372-16.803758v147.032881l-11.552583 89.269964h181.165515v-26.255872l-49.098481-64.589444 3.675823-48.048245 62.751533-118.151423 6.563968 11.552584 52.511743 155.959878V1024H1417.902732v-26.255872l-52.511743-65.114561-10.502349-157.53523 49.09848-63.276651 119.201658-58.550594 152.021497-126.81586a364.16894 364.16894 0 0 0 80.868084 70.103177 356.02962 356.02962 0 0 0 191.667864 56.187566 361.543353 361.543353 0 0 0 78.767615-8.664438l76.929704-88.219729v-1.312794a145.982647 145.982647 0 0 0 4.726057-37.020779 151.758938 151.758938 0 0 0-4.463499-35.970544z"  p-id="4060"></path></svg>