<?xml version="1.0" standalone="no"?><!DOCTYPE svg PUBLIC "-//W3C//DTD SVG 1.1//EN" "http://www.w3.org/Graphics/SVG/1.1/DTD/svg11.dtd"><svg t="1572836970329" class="icon" viewBox="0 0 1024 1024" version="1.1" xmlns="http://www.w3.org/2000/svg" p-id="5563" xmlns:xlink="http://www.w3.org/1999/xlink" width="32" height="32"><defs><style type="text/css"></style></defs><path d="M512 1013.76C234.88512 1013.76 10.24 789.11488 10.24 512S234.88512 10.24 512 10.24s501.76 224.64512 501.76 501.76-224.64512 501.76-501.76 501.76z m278.15936-337.5104l0.4096 0.24576 0.01024-0.50176 0.03072-0.01024-0.03072-0.02048 1.9968-323.328-115.34336-71.3216-163.18464 92.2624 120.95488 70.656 0.18432 137.40032-121.1392 69.76512V839.68l276.11136-163.4304zM392.72448 442.4704L514.048 372.60288V184.32L237.71136 348.91776l14.67392 8.86784-14.86848-8.97024L235.52 672.67584l115.34336 71.3216 163.18464-92.2624-120.95488-70.656-0.18432-138.496-0.18432-0.1024z" p-id="5564" ></path></svg>